<svg width="32" height="32" viewBox="0 0 32 32" fill="none" xmlns="http://www.w3.org/2000/svg">
  <!-- Background circle -->
  <circle cx="16" cy="16" r="16" fill="#2563EB"/>
  
  <!-- Building/Office icon representing business -->
  <rect x="8" y="12" width="6" height="12" fill="white" rx="1"/>
  <rect x="18" y="8" width="6" height="16" fill="white" rx="1"/>
  
  <!-- Windows on buildings -->
  <rect x="10" y="14" width="1" height="1" fill="#2563EB"/>
  <rect x="12" y="14" width="1" height="1" fill="#2563EB"/>
  <rect x="10" y="16" width="1" height="1" fill="#2563EB"/>
  <rect x="12" y="16" width="1" height="1" fill="#2563EB"/>
  <rect x="10" y="18" width="1" height="1" fill="#2563EB"/>
  <rect x="12" y="18" width="1" height="1" fill="#2563EB"/>
  <rect x="10" y="20" width="1" height="1" fill="#2563EB"/>
  <rect x="12" y="20" width="1" height="1" fill="#2563EB"/>
  
  <rect x="20" y="10" width="1" height="1" fill="#2563EB"/>
  <rect x="22" y="10" width="1" height="1" fill="#2563EB"/>
  <rect x="20" y="12" width="1" height="1" fill="#2563EB"/>
  <rect x="22" y="12" width="1" height="1" fill="#2563EB"/>
  <rect x="20" y="14" width="1" height="1" fill="#2563EB"/>
  <rect x="22" y="14" width="1" height="1" fill="#2563EB"/>
  <rect x="20" y="16" width="1" height="1" fill="#2563EB"/>
  <rect x="22" y="16" width="1" height="1" fill="#2563EB"/>
  <rect x="20" y="18" width="1" height="1" fill="#2563EB"/>
  <rect x="22" y="18" width="1" height="1" fill="#2563EB"/>
  <rect x="20" y="20" width="1" height="1" fill="#2563EB"/>
  <rect x="22" y="20" width="1" height="1" fill="#2563EB"/>
  
  <!-- Management/Growth arrow -->
  <path d="M4 28 L8 24 L12 26 L16 22 L20 24 L24 20 L28 22" stroke="white" stroke-width="1.5" fill="none" stroke-linecap="round" stroke-linejoin="round"/>
  <path d="M26 20 L28 22 L26 24" stroke="white" stroke-width="1.5" fill="none" stroke-linecap="round" stroke-linejoin="round"/>
</svg>